<?xml version="1.0" standalone="no"?>
<!DOCTYPE svg PUBLIC "-//W3C//DTD SVG 20010904//EN"
 "http://www.w3.org/TR/2001/REC-SVG-20010904/DTD/svg10.dtd">
<svg version="1.0" xmlns="http://www.w3.org/2000/svg"
 width="257.000000pt" height="257.000000pt" viewBox="0 0 257.000000 257.000000"
 preserveAspectRatio="xMidYMid meet">
<metadata>
Created by potrace 1.14, written by Peter Selinger 2001-2017
</metadata>
<g transform="translate(0.000000,257.000000) scale(0.100000,-0.100000)"
fill="#000000" stroke="none">
<path d="M1462 1903 c-33 -48 -77 -142 -147 -318 -37 -93 -85 -204 -106 -246
-39 -76 -112 -159 -126 -145 -15 15 -5 112 26 253 17 78 31 152 31 165 0 25
-79 148 -95 148 -6 0 -27 14 -48 31 -20 17 -45 29 -54 27 -26 -5 -111 -124
-229 -321 -86 -144 -126 -200 -191 -267 -45 -47 -84 -82 -87 -79 -12 11 25
154 89 349 35 107 65 205 67 217 2 15 -15 40 -62 87 -106 107 -93 99 -133 82
-113 -47 -199 -253 -282 -674 l-26 -132 49 -103 c46 -97 53 -106 111 -145 74
-49 111 -58 183 -43 106 22 195 75 342 205 38 34 71 56 73 50 18 -52 113 -198
155 -237 l50 -48 62 7 c72 8 105 26 174 96 104 106 161 204 277 475 43 100 82
180 85 178 4 -3 11 -28 14 -57 4 -29 15 -68 25 -87 l18 -35 -38 -80 c-22 -45
-44 -82 -49 -84 -6 -2 -10 -13 -10 -25 0 -12 -7 -31 -15 -41 -31 -42 -10 -218
32 -275 52 -68 154 -87 363 -68 172 15 257 36 308 74 55 41 111 143 79 143 -8
0 -32 16 -53 36 -68 63 -71 64 -144 48 -93 -21 -303 -44 -314 -34 -5 5 0 23
11 42 l19 33 110 1 c119 0 159 12 249 74 44 30 46 34 43 73 -2 31 -9 44 -24
52 -34 17 -55 37 -65 63 -9 23 -10 23 -122 18 -109 -5 -110 -5 -57 8 30 7 68
19 85 25 16 7 66 19 110 27 102 20 152 42 190 85 26 30 30 42 27 76 -3 35 -9
43 -33 54 -17 6 -35 20 -42 29 -7 10 -26 20 -43 24 -69 15 -524 -73 -612 -118
-41 -21 -45 -20 -31 5 17 33 5 113 -27 176 -29 56 -130 153 -160 153 -7 0 -21
-12 -32 -27z"/>
</g>
</svg>
